<mxfile host="app.diagrams.net" modified="2023-01-04T05:40:15.246Z" agent="5.0 (Macintosh; Intel Mac OS X 10_15_7) AppleWebKit/537.36 (KHTML, like Gecko) Chrome/107.0.0.0 Safari/537.36" version="20.7.4" etag="UMLRdamCb0bcvzyzPER0" type="github">
  <diagram id="qcJw_YcfdDBqEKWMq3Q2" name="第 1 页">
    <mxGraphModel dx="1406" dy="672" grid="1" gridSize="10" guides="1" tooltips="1" connect="1" arrows="1" fold="1" page="1" pageScale="1" pageWidth="827" pageHeight="1169" math="0" shadow="0">
      <root>
        <mxCell id="0" />
        <mxCell id="1" parent="0" />
        <mxCell id="_3AfYd3IydrUe3Vu6kzG-3" value="" style="edgeStyle=orthogonalEdgeStyle;rounded=0;orthogonalLoop=1;jettySize=auto;html=1;" edge="1" parent="1" source="_3AfYd3IydrUe3Vu6kzG-1" target="_3AfYd3IydrUe3Vu6kzG-2">
          <mxGeometry relative="1" as="geometry" />
        </mxCell>
        <mxCell id="_3AfYd3IydrUe3Vu6kzG-1" value="权限管理" style="rounded=1;whiteSpace=wrap;html=1;" vertex="1" parent="1">
          <mxGeometry x="40" y="210" width="120" height="60" as="geometry" />
        </mxCell>
        <mxCell id="_3AfYd3IydrUe3Vu6kzG-5" value="" style="edgeStyle=orthogonalEdgeStyle;rounded=0;orthogonalLoop=1;jettySize=auto;html=1;" edge="1" parent="1" source="_3AfYd3IydrUe3Vu6kzG-2" target="_3AfYd3IydrUe3Vu6kzG-4">
          <mxGeometry relative="1" as="geometry" />
        </mxCell>
        <mxCell id="_3AfYd3IydrUe3Vu6kzG-9" style="edgeStyle=orthogonalEdgeStyle;rounded=0;orthogonalLoop=1;jettySize=auto;html=1;" edge="1" parent="1" source="_3AfYd3IydrUe3Vu6kzG-2" target="_3AfYd3IydrUe3Vu6kzG-7">
          <mxGeometry relative="1" as="geometry" />
        </mxCell>
        <mxCell id="_3AfYd3IydrUe3Vu6kzG-10" value="分配角色（拥有的权限）" style="edgeLabel;html=1;align=center;verticalAlign=middle;resizable=0;points=[];" vertex="1" connectable="0" parent="_3AfYd3IydrUe3Vu6kzG-9">
          <mxGeometry x="0.0583" y="-1" relative="1" as="geometry">
            <mxPoint as="offset" />
          </mxGeometry>
        </mxCell>
        <mxCell id="_3AfYd3IydrUe3Vu6kzG-2" value="创建角色" style="whiteSpace=wrap;html=1;rounded=1;" vertex="1" parent="1">
          <mxGeometry x="240" y="210" width="120" height="60" as="geometry" />
        </mxCell>
        <mxCell id="_3AfYd3IydrUe3Vu6kzG-4" value="分配菜单权限（接口权限、地区权限）" style="whiteSpace=wrap;html=1;rounded=1;" vertex="1" parent="1">
          <mxGeometry x="440" y="210" width="120" height="60" as="geometry" />
        </mxCell>
        <mxCell id="_3AfYd3IydrUe3Vu6kzG-8" value="" style="edgeStyle=orthogonalEdgeStyle;rounded=0;orthogonalLoop=1;jettySize=auto;html=1;" edge="1" parent="1" source="_3AfYd3IydrUe3Vu6kzG-6" target="_3AfYd3IydrUe3Vu6kzG-7">
          <mxGeometry relative="1" as="geometry" />
        </mxCell>
        <mxCell id="_3AfYd3IydrUe3Vu6kzG-6" value="员工管理" style="rounded=1;whiteSpace=wrap;html=1;" vertex="1" parent="1">
          <mxGeometry x="40" y="30" width="120" height="60" as="geometry" />
        </mxCell>
        <mxCell id="_3AfYd3IydrUe3Vu6kzG-7" value="新增管理员" style="whiteSpace=wrap;html=1;rounded=1;" vertex="1" parent="1">
          <mxGeometry x="240" y="30" width="120" height="60" as="geometry" />
        </mxCell>
        <mxCell id="_3AfYd3IydrUe3Vu6kzG-13" value="" style="edgeStyle=orthogonalEdgeStyle;rounded=0;orthogonalLoop=1;jettySize=auto;html=1;" edge="1" parent="1" source="_3AfYd3IydrUe3Vu6kzG-11" target="_3AfYd3IydrUe3Vu6kzG-12">
          <mxGeometry relative="1" as="geometry" />
        </mxCell>
        <mxCell id="_3AfYd3IydrUe3Vu6kzG-11" value="用户(管理员)id" style="rounded=1;whiteSpace=wrap;html=1;" vertex="1" parent="1">
          <mxGeometry x="40" y="390" width="120" height="60" as="geometry" />
        </mxCell>
        <mxCell id="_3AfYd3IydrUe3Vu6kzG-12" value="查询出" style="whiteSpace=wrap;html=1;rounded=1;" vertex="1" parent="1">
          <mxGeometry x="330" y="390" width="120" height="60" as="geometry" />
        </mxCell>
      </root>
    </mxGraphModel>
  </diagram>
</mxfile>
